<svg width="120" height="172" viewBox="0 0 120 172" fill="none" xmlns="http://www.w3.org/2000/svg">
<path d="M93.6143 105.114H92.5C89.4624 105.114 87 107.577 87 110.614V132.114C87 135.152 89.4624 137.614 92.5 137.614H93.3857C95.9341 137.614 98 135.548 98 133V132.5V131.927V131.521V131.5V131C98 131.042 98.051 131.063 98.0808 131.033L99.5 129.614L100.25 128.864L100.625 128.489L100.812 128.302L100.918 128.208L100.934 128.189C100.968 128.151 101.028 128.154 101.058 128.196C101.063 128.204 101.071 128.211 101.079 128.216L101.151 128.262C101.175 128.278 101.198 128.296 101.22 128.316L101.375 128.458L101.75 128.802L102.5 129.489L104 130.864L107 133.614L109.686 136.076C111.539 137.775 114.402 137.713 116.179 135.935C118.013 134.101 118.013 131.128 116.179 129.294L114 127.114L111.25 124.364L109.875 122.989L109.188 122.302L108.844 121.958L108.602 121.745C108.594 121.738 108.587 121.73 108.58 121.722L108.576 121.716C108.532 121.658 108.538 121.576 108.59 121.524L108.68 121.435L108.859 121.255L109.219 120.896L109.938 120.177L111.375 118.739L114.25 115.864L116.5 113.614C118.433 111.681 118.433 108.547 116.5 106.614C114.567 104.681 111.433 104.681 109.5 106.614L105.5 110.614L101.75 114.364L99.875 116.239L98.9375 117.177L98.4688 117.646L98.2344 117.88L98.1172 117.997L98.0808 118.033C98.051 118.063 98 118.042 98 118V117.708V117.302V116.489V114.864V109.5C98 107.078 96.0364 105.114 93.6143 105.114Z" fill="#FF4D00"/>
<path d="M49.3155 47.3992L3.99954 52.1922C2.00413 52.4033 0.366243 50.6275 0.782421 48.6646C3.96355 33.6608 8.36865 25.6018 20 14.6153C34.8652 2.71745 44.0727 -0.704678 62.5 0.115272C77.2878 1.40554 85.1208 4.37998 98 14.6143C108.083 24.4195 112.226 31.8305 115.684 44.7992C116.294 47.0881 114.074 49.08 111.841 48.2898L56.0007 28.5309C54.0485 27.8401 52 29.2882 52 31.3591V44.4158C52 45.9505 50.8417 47.2378 49.3155 47.3992Z" fill="#FF5300"/>
<path d="M0 85.6143V62.4145C0 59.6301 2.77391 57.6976 5.38583 58.6622L60.1142 78.8751C62.7261 79.8398 65.5 77.9072 65.5 75.1228V62.9092C65.5 60.8363 67.0836 59.1069 69.1484 58.9247L113.648 54.9982C115.987 54.7919 118 56.6348 118 58.9827V85.6143C118 87.8234 116.209 89.6143 114 89.6143H4C1.79086 89.6143 0 87.8234 0 85.6143Z" fill="#FF5300"/>
<path d="M31 105.114H5.5C2.46243 105.114 0 107.577 0 110.614C0 113.652 2.46244 116.114 5.5 116.114H12.6821H12.8411C12.9288 116.114 13 116.185 13 116.273V116.307V116.5V132.614C13 135.652 15.4624 138.114 18.5 138.114C21.5376 138.114 24 135.652 24 132.614V127.114V121.614V118.864V117.489V116.5V116.283C24 116.19 24.0756 116.114 24.169 116.114H24.5H25.5625H27.125H30.25H31C34.0376 116.114 36.5 113.652 36.5 110.614C36.5 107.577 34.0376 105.114 31 105.114Z" fill="#FF4D00"/>
<path d="M28.048 159H26.632V142.32L29.296 142.056V157.248L28.048 159ZM28.336 151.008L27.568 149.16C27.92 148.696 28.328 148.312 28.792 148.008C29.256 147.688 29.728 147.448 30.208 147.288C30.704 147.128 31.168 147.048 31.6 147.048C32.8 147.048 33.832 147.304 34.696 147.816C35.576 148.312 36.248 149.024 36.712 149.952C37.192 150.864 37.432 151.944 37.432 153.192C37.432 154.408 37.192 155.48 36.712 156.408C36.232 157.32 35.552 158.032 34.672 158.544C33.808 159.056 32.76 159.312 31.528 159.312C31.144 159.312 30.688 159.224 30.16 159.048C29.648 158.872 29.152 158.624 28.672 158.304C28.208 157.984 27.824 157.608 27.52 157.176L28.312 155.304C28.84 155.928 29.352 156.368 29.848 156.624C30.36 156.864 30.92 156.984 31.528 156.984C32.2 156.984 32.768 156.824 33.232 156.504C33.696 156.168 34.048 155.712 34.288 155.136C34.528 154.56 34.648 153.92 34.648 153.216C34.648 152.448 34.528 151.776 34.288 151.2C34.064 150.624 33.72 150.176 33.256 149.856C32.792 149.52 32.224 149.352 31.552 149.352C30.912 149.352 30.344 149.488 29.848 149.76C29.368 150.032 28.864 150.448 28.336 151.008ZM48.9501 147.36H51.6621V159H49.8141L49.3581 157.608C48.9261 157.96 48.4541 158.272 47.9421 158.544C47.4301 158.8 46.9101 159 46.3821 159.144C45.8701 159.304 45.3821 159.384 44.9181 159.384C43.9421 159.384 43.1741 159.192 42.6141 158.808C42.0541 158.408 41.6541 157.864 41.4141 157.176C41.1741 156.488 41.0541 155.712 41.0541 154.848V147.36H43.7421V154.656C43.7421 155.424 43.8861 156.024 44.1741 156.456C44.4621 156.888 44.9181 157.104 45.5421 157.104C45.9421 157.104 46.3421 157.024 46.7421 156.864C47.1421 156.704 47.5261 156.504 47.8941 156.264C48.2781 156.008 48.6301 155.752 48.9501 155.496V147.36ZM58.8072 159H56.1192V147.36H57.5592L58.4472 149.28C58.7672 149.008 59.1512 148.728 59.5992 148.44C60.0472 148.136 60.5112 147.88 60.9912 147.672C61.4872 147.464 61.9432 147.36 62.3592 147.36L62.9352 149.52C62.5512 149.52 62.1112 149.616 61.6152 149.808C61.1352 150 60.6472 150.248 60.1512 150.552C59.6712 150.856 59.2232 151.2 58.8072 151.584V159ZM76.6047 147.36V159.792C76.6047 160.768 76.3647 161.608 75.8847 162.312C75.4207 163.016 74.7487 163.56 73.8687 163.944C73.0047 164.328 71.9647 164.52 70.7487 164.52C70.5087 164.52 70.1887 164.496 69.7887 164.448C69.4047 164.4 68.9967 164.32 68.5647 164.208C68.1487 164.112 67.7407 163.984 67.3407 163.824C66.9407 163.664 66.5967 163.48 66.3087 163.272L67.1247 161.352C67.7487 161.672 68.3327 161.912 68.8767 162.072C69.4207 162.248 70.0207 162.344 70.6767 162.36C71.6207 162.344 72.3887 162.112 72.9807 161.664C73.5887 161.216 73.8927 160.584 73.8927 159.768V149.376L75.1407 147.36H76.6047ZM74.5647 155.352L75.3807 157.176C75.0287 157.624 74.6207 158.008 74.1567 158.328C73.6927 158.648 73.2127 158.888 72.7167 159.048C72.2367 159.224 71.7727 159.312 71.3247 159.312C70.1247 159.312 69.0847 159.056 68.2047 158.544C67.3407 158.032 66.6767 157.32 66.2127 156.408C65.7487 155.48 65.5167 154.392 65.5167 153.144C65.5167 151.928 65.7487 150.864 66.2127 149.952C66.6927 149.04 67.3727 148.328 68.2527 147.816C69.1327 147.304 70.1727 147.048 71.3727 147.048C71.7887 147.048 72.2527 147.136 72.7647 147.312C73.2767 147.472 73.7647 147.712 74.2287 148.032C74.7087 148.352 75.1007 148.736 75.4047 149.184L74.6127 151.032C74.0847 150.424 73.5647 149.992 73.0527 149.736C72.5567 149.48 72.0047 149.352 71.3967 149.352C70.7407 149.352 70.1727 149.52 69.6927 149.856C69.2287 150.192 68.8767 150.648 68.6367 151.224C68.3967 151.784 68.2767 152.424 68.2767 153.144C68.2767 153.896 68.3967 154.56 68.6367 155.136C68.8767 155.712 69.2287 156.168 69.6927 156.504C70.1727 156.824 70.7327 156.984 71.3727 156.984C71.9967 156.984 72.5487 156.848 73.0287 156.576C73.5247 156.304 74.0367 155.896 74.5647 155.352ZM91.3583 153.888H83.2943C83.3743 154.512 83.5423 155.056 83.7983 155.52C84.0703 155.984 84.4623 156.352 84.9743 156.624C85.5023 156.88 86.1823 157.008 87.0143 157.008C87.6863 157.008 88.2783 156.912 88.7903 156.72C89.3183 156.528 89.8703 156.28 90.4463 155.976L91.2623 157.944C90.8943 158.184 90.4943 158.416 90.0623 158.64C89.6303 158.848 89.1583 159.008 88.6463 159.12C88.1343 159.232 87.5743 159.288 86.9663 159.288C85.5423 159.288 84.3423 159.04 83.3663 158.544C82.3903 158.032 81.6623 157.32 81.1823 156.408C80.7023 155.48 80.4623 154.408 80.4623 153.192C80.4623 151.96 80.6863 150.888 81.1343 149.976C81.5983 149.048 82.2543 148.328 83.1023 147.816C83.9663 147.304 84.9903 147.048 86.1743 147.048C87.3743 147.048 88.3583 147.336 89.1263 147.912C89.8943 148.488 90.4543 149.248 90.8063 150.192C91.1743 151.136 91.3583 152.176 91.3583 153.312V153.888ZM83.3423 152.064H88.7663C88.6703 151.488 88.5023 151 88.2623 150.6C88.0383 150.2 87.7423 149.896 87.3743 149.688C87.0223 149.464 86.5903 149.352 86.0783 149.352C85.5823 149.352 85.1343 149.464 84.7343 149.688C84.3503 149.896 84.0383 150.2 83.7983 150.6C83.5743 151 83.4223 151.488 83.3423 152.064ZM97.7613 159H95.0733V147.36H96.5133L97.4013 149.28C97.7213 149.008 98.1053 148.728 98.5533 148.44C99.0013 148.136 99.4653 147.88 99.9453 147.672C100.441 147.464 100.897 147.36 101.313 147.36L101.889 149.52C101.505 149.52 101.065 149.616 100.569 149.808C100.089 150 99.6013 150.248 99.1053 150.552C98.6253 150.856 98.1773 151.2 97.7613 151.584V159Z" fill="#FF4D00"/>
<path d="M84 122C84 126.201 81.7235 131.645 78 134.5C73.8908 137.65 68.0192 138 61.5 138C56.1865 138 51.3495 138.19 47.5 136C42.3468 133.068 39 127.058 39 122C39 117.221 41.8289 111.432 46.5 108.5C50.4664 106.011 56 106 61.5 106C67.7592 106 73.4214 106.067 77.5 109C81.5187 111.89 84 117.614 84 122ZM50.0653 122C50.0653 126.491 55.1848 130.131 61.5 130.131C67.8152 130.131 72.9347 126.491 72.9347 122C72.9347 117.509 67.8152 113.869 61.5 113.869C55.1848 113.869 50.0653 117.509 50.0653 122Z" fill="#FF5300"/>
</svg>
